<svg version="1.1" id="Layer_1" xmlns="http://www.w3.org/2000/svg" xmlns:xlink="http://www.w3.org/1999/xlink" x="0px" y="0px"
	 width="40PX" viewBox="0 0 529 492" enable-background="new 0 0 529 492" xml:space="preserve">
<path fill="#948364" opacity="1.000000" stroke="none" 
	d="
M405.720886,1.253036 
	C446.143585,1.000000 486.287262,1.030649 526.430603,0.933508 
	C529.213135,0.926775 530.098145,1.245080 530.096008,4.426850 
	C529.986816,166.167175 529.983887,327.907593 530.110229,489.647919 
	C530.112915,493.044037 528.933350,493.049988 526.355957,493.046509 
	C479.216492,492.982849 432.076874,493.000000 384.468658,493.000000 
	C376.058411,485.464935 370.942657,475.962921 365.657196,466.586212 
	C363.382568,462.550903 361.381500,458.355927 359.076294,454.348633 
	C356.848297,450.475555 355.390076,446.587128 356.073914,441.697571 
	C358.730438,437.830566 362.900543,436.644470 366.418030,434.542389 
	C425.439606,399.270081 461.147491,347.960632 470.345856,279.704529 
	C478.513947,219.093338 462.004761,164.875122 422.857178,117.830460 
	C408.172394,100.183350 391.126953,85.062233 371.189270,73.413635 
	C369.175659,72.237183 367.203979,70.987617 365.195618,69.161148 
	C363.842010,61.984428 366.491730,55.757225 368.910431,49.779037 
	C370.976257,44.673019 374.817932,40.298298 377.907867,35.665974 
	C382.949921,28.107067 387.900757,20.484200 392.979004,12.951201 
	C396.135437,8.268998 399.536194,3.400708 405.720886,1.253036 
z"/>
<path fill="#8C7958" opacity="1.000000" stroke="none" 
	d="
M107.245773,492.753418 
	C72.853401,493.000000 38.706684,492.962585 4.560419,493.069183 
	C1.752810,493.077942 0.903696,492.720459 0.905785,489.564240 
	C1.012824,327.826019 1.016225,166.087738 0.889288,4.349556 
	C0.886617,0.946287 2.075841,0.950791 4.646479,0.954179 
	C52.118484,1.016738 99.590591,1.000000 147.531342,1.000000 
	C149.251068,2.127770 149.840912,3.406751 148.655045,4.901529 
	C143.570923,11.310086 141.423035,18.999889 139.492798,26.685652 
	C137.733643,33.690243 134.493942,39.973637 131.228683,46.291451 
	C130.846817,47.030293 130.399033,47.764412 130.252899,48.573715 
	C128.021774,60.929920 123.391891,72.640526 120.490326,84.821754 
	C119.641556,88.384995 121.758087,90.410408 123.437691,93.234192 
	C124.454590,96.298492 122.271904,97.535378 120.811432,98.958580 
	C84.083878,134.749069 61.170067,177.639206 55.580410,228.874344 
	C49.218670,287.186401 64.883591,339.387634 101.530106,385.188293 
	C108.712746,394.165131 116.713051,402.441193 125.567986,409.843658 
	C126.940903,410.991394 128.477936,412.144318 128.622910,414.540436 
	C121.072960,425.095734 119.344009,425.272278 110.890663,416.709686 
	C110.316078,416.127655 109.821541,415.428131 108.506035,415.230652 
	C108.615166,418.758911 109.555656,422.088562 110.057640,425.455597 
	C111.170380,432.919250 104.792610,441.065369 97.361870,441.138153 
	C94.755524,441.163666 94.303467,442.064667 94.362862,444.357697 
	C94.526802,450.687653 97.917580,456.051392 99.460533,461.974152 
	C101.674927,470.474396 105.266006,478.568604 107.776833,487.000580 
	C108.322556,488.833282 109.524086,490.775574 107.245773,492.753418 
z"/>
<path fill="#917F5F" opacity="1.000000" stroke="none" 
	d="
M405.531342,1.000000 
	C405.441101,3.062039 403.706543,4.214827 402.341431,5.626582 
	C395.622864,12.574722 391.593048,21.426777 385.736847,28.973198 
	C380.987610,35.093174 377.338928,41.935116 372.907349,48.275455 
	C369.216644,53.555798 367.161102,60.134300 367.015289,67.342560 
	C364.970551,70.337494 363.024109,68.217224 361.321838,67.405937 
	C350.512604,62.254494 339.523224,57.544216 328.113281,53.909615 
	C300.749573,45.193027 272.800720,41.576042 244.090347,44.242249 
	C238.154572,44.793480 232.272705,45.999836 225.901108,45.727982 
	C222.851196,42.528717 223.750504,39.228386 225.218643,36.211636 
	C230.016739,26.352465 233.307526,15.819057 238.738251,6.244091 
	C239.744568,4.469832 241.031204,3.001321 242.712280,1.287920 
	C297.020905,1.000000 351.041779,1.000000 405.531342,1.000000 
z"/>
<path fill="#8E7C5B" opacity="1.000000" stroke="none" 
	d="
M107.468658,493.000000 
	C102.252907,479.200867 97.414154,465.432159 92.812546,451.584686 
	C91.363953,447.225494 91.347374,442.551727 89.379288,438.154327 
	C88.308334,435.761475 91.593636,436.640106 92.776070,437.174042 
	C99.564796,440.239746 101.585327,438.922180 106.330544,432.182587 
	C107.683556,430.260925 107.972466,428.251434 107.500732,426.021576 
	C106.536530,421.463837 105.585411,416.903015 104.676704,412.333984 
	C104.399261,410.938904 103.442978,409.176849 105.225983,408.318237 
	C106.709831,407.603760 107.515434,409.233948 108.384850,410.174133 
	C110.416374,412.371002 112.534988,414.503448 114.392136,416.841644 
	C117.211937,420.391754 119.936005,421.420471 123.226929,417.389313 
	C124.024010,416.412964 125.391266,415.902100 126.827263,415.062439 
	C129.716660,413.091614 131.123428,415.406830 132.711945,416.599182 
	C154.930084,433.276459 179.104767,446.083588 205.864410,453.843048 
	C207.878082,454.426941 210.141876,454.755737 211.424622,457.249817 
	C213.465012,467.602142 217.950287,476.610046 222.151001,485.737762 
	C223.108978,487.819336 225.267303,490.033447 222.283142,492.713989 
	C183.979111,493.000000 145.958206,493.000000 107.468658,493.000000 
z"/>
<path fill="#8E7C5B" opacity="1.000000" stroke="none" 
	d="
M242.531342,1.000000 
	C242.225327,8.351176 236.756668,13.738842 234.773956,20.545111 
	C232.502640,28.342075 227.174698,34.930721 226.026276,43.537395 
	C225.965698,47.298134 223.231766,47.207760 221.052032,47.691883 
	C201.456863,52.044041 182.581116,58.401009 164.867950,67.945351 
	C151.656769,75.063896 139.053543,83.120209 127.424347,92.653320 
	C126.083733,93.752296 124.932053,95.512177 122.419830,94.627747 
	C114.858360,91.159317 116.042114,91.871979 117.783875,84.415215 
	C119.443237,77.311203 121.369164,70.196358 123.504936,63.321705 
	C126.395020,54.019112 128.032211,44.171078 133.470337,35.590816 
	C136.145493,31.369968 137.525497,26.066740 138.452347,21.060900 
	C139.827393,13.634133 143.285110,7.451375 147.874313,1.314945 
	C179.354233,1.000000 210.708450,1.000000 242.531342,1.000000 
z"/>
<path fill="#907E5E" opacity="1.000000" stroke="none" 
	d="
M222.468658,493.000000 
	C219.921173,484.880402 215.087143,477.913666 212.406189,470.021271 
	C211.162354,466.359619 209.807419,462.833740 210.002167,458.481506 
	C211.382416,454.848328 214.148743,456.282440 216.078979,456.694183 
	C225.038055,458.605408 234.064499,459.888062 243.181107,460.703979 
	C270.471191,463.146423 297.287292,460.849731 323.559723,452.886841 
	C332.963287,450.036713 342.163330,446.679565 350.962097,442.255402 
	C352.981049,441.240265 355.113953,439.947327 357.772522,441.691162 
	C357.538666,449.068207 362.270355,454.074371 365.044891,459.774963 
	C369.754150,469.450714 375.331146,478.654053 381.817902,487.277039 
	C382.924072,488.747559 383.666595,490.414062 383.950134,492.635254 
	C330.312439,493.000000 276.624878,493.000000 222.468658,493.000000 
z"/>
<path fill="#111920" opacity="1.000000" stroke="none" 
	d="
M358.271729,441.829651 
	C346.514069,447.297668 334.998383,452.427429 322.800293,455.923981 
	C285.636566,466.576904 248.311264,466.800964 210.399200,458.052582 
	C194.596863,453.227905 179.393555,447.900116 165.158875,440.144592 
	C151.951569,432.948853 138.802246,425.667542 127.458588,415.086151 
	C113.073105,402.405396 100.194908,388.806732 89.331360,373.297852 
	C36.880520,298.418823 39.349850,195.962372 95.434494,123.746201 
	C103.445007,113.431625 111.801682,103.452576 121.942368,94.661560 
	C142.234634,76.504204 165.064667,63.214069 190.287415,53.900398 
	C201.688232,49.690567 213.413651,46.745201 225.634491,44.072266 
	C240.015396,42.115730 254.039673,40.712593 268.217438,41.047005 
	C303.122070,41.870296 335.741669,50.995255 366.692749,67.659805 
	C385.939362,78.862572 403.106018,92.154778 418.005768,108.343933 
	C448.819061,141.823700 467.732147,180.962021 473.050415,226.196426 
	C481.037811,294.133026 460.526459,352.710510 413.209808,401.820007 
	C397.408356,418.220184 379.037384,431.467560 358.271729,441.829651 
z"/>
<path fill="#907F60" opacity="1.000000" stroke="none" 
	d="
M413.763367,169.678589 
	C424.665497,187.644470 430.936340,206.895203 433.717072,227.152374 
	C440.431458,276.065674 429.002930,320.445923 398.438904,359.348541 
	C388.547455,371.938599 376.549652,382.667419 363.589172,392.286407 
	C336.010315,412.754669 305.040558,423.232391 270.453003,424.739563 
	C268.346161,423.445496 266.443024,422.326691 267.518341,419.287170 
	C270.010071,415.052368 274.223907,416.002655 277.517761,415.770996 
	C314.212006,413.190277 345.586578,398.488983 372.740479,374.269165 
	C402.657410,347.584930 419.934998,314.036865 425.456726,274.466858 
	C430.049774,241.551910 424.073395,210.232346 410.281158,180.212311 
	C409.206360,177.872925 407.258209,175.699783 408.385864,172.396301 
	C409.787933,170.406403 410.515717,167.943649 413.763367,169.678589 
z"/>
<path fill="#8C7B5D" opacity="1.000000" stroke="none" 
	d="
M414.055969,169.597717 
	C412.526794,170.419678 411.210449,171.303772 410.068176,172.996277 
	C406.540253,174.870712 405.891266,171.943497 404.756927,170.120255 
	C397.344513,158.206360 389.081635,147.034637 379.139069,137.005219 
	C355.130615,112.787048 326.395691,97.572617 292.973145,91.650253 
	C243.242599,82.838173 198.490417,94.338585 159.032715,126.033913 
	C149.765793,133.477798 141.749527,142.151138 134.030853,151.132477 
	C132.893906,152.455399 132.018021,154.397583 129.231186,153.584564 
	C125.788704,152.922470 125.788635,150.937012 126.712509,148.169159 
	C128.767166,144.121140 131.629639,141.281647 134.578598,138.117584 
	C136.559067,137.204407 138.089142,136.284302 138.768082,134.025497 
	C139.969101,132.525818 141.053436,131.345108 142.402008,130.018677 
	C144.524307,129.341202 145.995041,128.366364 146.769333,126.112312 
	C169.182053,104.574371 195.540436,90.938309 225.480774,84.534241 
	C275.909180,73.747887 322.489288,83.137123 364.496918,113.133316 
	C385.225769,127.935059 401.916321,146.635086 414.055969,169.597717 
z"/>
<path fill="#897858" opacity="1.000000" stroke="none" 
	d="
M126.606049,147.924957 
	C127.330765,149.332047 127.917519,150.835220 129.783173,151.863129 
	C132.572937,155.244766 129.733795,157.349060 128.279633,159.488937 
	C119.527924,172.367599 112.180763,185.987427 107.659882,200.893768 
	C89.749550,259.948181 100.884224,313.246399 140.036560,360.772034 
	C144.157944,365.774841 149.192215,369.966431 153.629410,374.701324 
	C155.050385,376.217621 157.103546,377.494568 156.553482,380.543152 
	C156.143295,384.047699 154.230225,384.224091 151.417969,383.234741 
	C130.710083,366.467224 115.433769,345.990845 105.534416,321.918243 
	C80.179085,260.260895 87.064781,202.183655 126.606049,147.924957 
z"/>
<path fill="#8B7A5B" opacity="1.000000" stroke="none" 
	d="
M151.178741,383.286804 
	C152.628281,382.572845 154.039169,381.863892 154.964661,379.957825 
	C157.391937,377.134003 159.009903,379.299286 160.600418,380.537354 
	C173.404221,390.504028 187.265320,398.669800 202.255539,404.858887 
	C221.088989,412.634796 240.849167,415.847717 261.110840,416.554749 
	C263.776337,416.647736 266.855560,415.536652 268.973969,418.771423 
	C269.310944,420.781158 269.612793,422.387512 269.966125,424.339264 
	C237.566071,426.418152 207.320190,418.826263 179.056900,403.028229 
	C169.165527,397.499329 159.675232,391.351349 151.178741,383.286804 
z"/>
<path fill="#827255" opacity="1.000000" stroke="none" 
	d="
M267.946808,64.594315 
	C267.399292,64.998871 266.669403,65.249725 266.578308,65.103264 
	C263.513672,60.176109 263.472565,60.171627 260.483978,65.622253 
	C258.810089,62.304230 259.170776,59.309677 260.405579,55.638794 
	C262.755737,59.248749 265.017120,61.986504 267.059998,55.232243 
	C268.838470,58.754601 268.057465,61.547623 267.946808,64.594315 
z"/>
<path fill="#827255" opacity="1.000000" stroke="none" 
	d="
M268.112061,447.788757 
	C267.709198,448.965698 267.147522,449.761169 266.382324,448.694366 
	C263.280823,444.370239 263.307861,444.343140 260.604736,449.600067 
	C258.778198,446.366302 259.271240,443.398560 260.178345,439.709534 
	C262.600708,443.084869 264.864044,445.650024 266.874481,439.600952 
	C269.023163,442.340088 267.927979,445.007263 268.112061,447.788757 
z"/>
<path fill="#827255" opacity="1.000000" stroke="none" 
	d="
M223.781357,443.340820 
	C224.625870,438.943787 220.814194,440.922333 219.456573,440.223450 
	C216.783859,438.847534 218.732468,443.680328 215.735504,443.412476 
	C214.909195,440.621979 216.214676,437.948914 217.541214,434.713715 
	C220.043259,438.427551 223.090988,438.929932 226.813995,436.659668 
	C227.358185,439.687134 226.489639,442.139862 225.602142,444.289612 
	C224.536652,446.870361 223.879364,445.360809 223.781357,443.340820 
z"/>
<path fill="#827255" opacity="1.000000" stroke="none" 
	d="
M305.977722,444.965271 
	C304.259155,445.173309 302.497040,446.156036 302.014374,443.898926 
	C301.477509,441.388519 299.836395,438.806305 301.196472,436.317383 
	C301.790985,435.229431 304.023376,434.623230 305.247040,435.517151 
	C307.595581,437.232910 308.324158,439.964813 308.240356,442.799103 
	C308.209839,443.830353 307.254944,444.451508 305.977722,444.965271 
z"/>
<path fill="#827255" opacity="1.000000" stroke="none" 
	d="
M216.125641,67.004990 
	C215.844711,65.356277 215.639236,64.074509 215.349930,62.269829 
	C218.695038,63.087090 221.803665,64.526337 224.136810,60.904812 
	C224.869308,59.767845 225.815338,61.131943 225.971573,62.138809 
	C226.293839,64.215500 227.559692,66.186996 226.733154,68.490372 
	C224.352295,69.213699 225.389786,64.527969 221.707504,65.791794 
	C218.535309,66.880569 218.827286,68.552345 218.922684,70.712250 
	C216.281021,70.499153 216.868484,68.501976 216.125641,67.004990 
z"/>
<path fill="#827255" opacity="1.000000" stroke="none" 
	d="
M301.094330,64.864212 
	C302.077637,62.958439 301.098877,60.113171 304.122345,60.084393 
	C305.674622,60.069618 307.639587,60.670452 307.643585,62.172592 
	C307.649780,64.500626 308.503143,67.197784 306.579590,69.202408 
	C305.262787,70.574707 303.483276,70.251923 301.930908,69.584793 
	C299.703583,68.627594 301.014313,66.763725 301.094330,64.864212 
z"/>
<path fill="#827255" opacity="1.000000" stroke="none" 
	d="
M281.320068,61.784214 
	C280.253052,62.175194 278.903778,62.201496 278.769379,62.618931 
	C277.967499,65.109818 281.469391,63.751980 281.584381,65.929733 
	C279.759888,66.558037 277.173035,66.876900 276.411713,65.244713 
	C275.257996,62.771160 275.584808,59.673637 276.934448,57.104244 
	C277.664398,55.714577 279.428131,55.944679 280.521027,56.567326 
	C282.627625,57.767479 280.298035,58.097851 279.920654,58.883564 
	C279.141602,60.505531 282.440613,59.801895 281.320068,61.784214 
z"/>
<path fill="#827255" opacity="1.000000" stroke="none" 
	d="
M321.210327,439.155975 
	C322.726746,441.424866 320.555145,440.997192 319.661072,441.441986 
	C318.113464,442.211914 316.496490,442.107117 316.219330,440.118927 
	C315.860199,437.542603 312.998199,435.094513 315.501587,432.386444 
	C316.024689,431.820587 317.491180,431.634491 318.288208,431.922638 
	C319.692169,432.430176 318.475983,433.168182 318.080872,433.736694 
	C317.545166,434.507629 317.693817,434.932098 318.633148,435.001892 
	C320.985565,435.176697 321.464203,435.298859 319.321838,437.317596 
	C317.143341,439.370392 319.515747,439.187134 321.210327,439.155975 
z"/>
<path fill="#827255" opacity="1.000000" stroke="none" 
	d="
M203.348465,439.037933 
	C201.742538,438.810547 200.494202,438.660889 198.691620,438.444794 
	C200.504379,435.374451 202.877762,433.469818 205.528732,431.181824 
	C207.296539,434.414246 206.906082,437.639862 207.667999,440.640442 
	C205.494568,441.161316 205.063339,439.185791 203.348465,439.037933 
z"/>
<path fill="#827255" opacity="1.000000" stroke="none" 
	d="
M334.500916,432.545410 
	C334.671967,433.664734 334.912994,434.591705 334.591217,435.238953 
	C333.805054,436.820587 332.200012,438.263824 330.676819,437.055511 
	C328.625244,435.428070 332.826782,435.518219 331.937408,433.676392 
	C331.402191,432.752350 330.279907,433.292999 329.380341,433.066772 
	C327.915070,432.698303 327.117767,431.739563 327.215881,430.209808 
	C327.284576,429.138428 327.943909,428.371826 328.904694,427.955566 
	C330.682373,427.185394 330.949554,428.258545 331.492523,429.704041 
	C331.885559,430.750397 333.336029,431.399536 334.500916,432.545410 
z"/>
<path fill="#827255" opacity="1.000000" stroke="none" 
	d="
M279.598083,442.732971 
	C280.737335,442.937836 282.606537,443.450317 281.236755,444.147583 
	C276.016022,446.805115 282.008392,446.762085 282.189850,448.367371 
	C280.307770,449.206329 278.034546,449.904114 276.933044,448.182098 
	C275.431763,445.835205 275.408417,442.691650 276.349091,440.076172 
	C277.005219,438.251831 279.043457,439.178589 280.142487,439.228394 
	C282.054779,441.434937 276.412964,440.359467 279.598083,442.732971 
z"/>
<path fill="#827255" opacity="1.000000" stroke="none" 
	d="
M314.639893,70.304901 
	C315.213379,68.378708 315.611298,66.777657 316.169708,65.234688 
	C317.012085,62.906891 318.745331,63.779064 320.276581,64.269783 
	C320.886627,64.465279 321.571533,65.020485 320.913116,65.687935 
	C320.530762,66.075562 319.406311,65.825317 319.140381,66.217667 
	C317.849518,68.122200 321.542633,67.529213 320.741364,69.343826 
	C319.930969,70.700150 318.178314,68.836494 317.331421,70.230461 
	C316.746674,72.264053 319.979797,71.554367 319.561432,73.774063 
	C317.312958,73.615677 314.676056,74.423553 314.639893,70.304901 
z"/>
<path fill="#827255" opacity="1.000000" stroke="none" 
	d="
M206.135315,73.357452 
	C204.407364,73.918388 203.113770,74.587402 201.561157,76.496231 
	C201.244385,72.233780 202.011017,69.223770 202.930313,66.104889 
	C205.568146,66.913986 206.701904,68.889191 208.263870,70.317146 
	C208.946442,70.941162 210.173416,71.631424 209.639282,72.702934 
	C208.978470,74.028587 207.493088,72.787430 206.135315,73.357452 
z"/>
<path fill="#827255" opacity="1.000000" stroke="none" 
	d="
M332.163788,77.412720 
	C329.865143,78.410355 328.397400,77.767700 327.189911,75.707680 
	C327.787781,74.634224 333.362457,76.651016 329.474640,72.579033 
	C328.516083,71.575043 328.535553,70.124123 329.564423,68.967651 
	C330.434174,67.990013 331.587769,67.746750 332.700897,68.368820 
	C334.786438,69.534332 332.378326,70.525436 332.508453,71.365425 
	C332.816772,73.356186 334.551758,75.236282 332.163788,77.412720 
z"/>
<path fill="#827255" opacity="1.000000" stroke="none" 
	d="
M249.766205,444.996399 
	C249.345673,446.519775 249.897217,448.122040 247.900375,448.697784 
	C246.060623,445.891754 249.578568,442.007111 245.316544,439.764709 
	C248.128738,438.810486 249.983810,438.837799 252.285995,440.164093 
	C250.739441,441.366211 249.553680,442.686707 249.766205,444.996399 
z"/>
<path fill="#827255" opacity="1.000000" stroke="none" 
	d="
M245.497986,57.808895 
	C247.144058,55.154549 249.404160,56.403854 251.843613,56.550125 
	C248.218414,59.130066 250.840042,62.924873 249.421631,66.195595 
	C246.394180,64.131912 248.835495,59.753712 245.497986,57.808895 
z"/>
<path fill="#827255" opacity="1.000000" stroke="none" 
	d="
M341.775024,72.971054 
	C344.354004,72.464996 345.838318,74.174980 347.973358,75.240646 
	C343.320129,75.691895 343.928345,80.426903 341.198700,82.782402 
	C339.176453,79.300415 344.330139,76.337677 341.775024,72.971054 
z"/>
<path fill="#827255" opacity="1.000000" stroke="none" 
	d="
M338.527100,425.227905 
	C339.371033,422.642456 341.890961,423.092560 343.866241,421.836060 
	C341.784271,425.580017 345.368530,428.247955 345.370667,431.819489 
	C341.461029,431.004242 342.973267,425.210205 338.527100,425.227905 
z"/>
<path fill="#827255" opacity="1.000000" stroke="none" 
	d="
M179.217041,75.098495 
	C182.443451,76.758255 182.916840,79.895569 183.367050,83.067146 
	C180.492554,81.302513 179.584961,78.410767 179.217041,75.098495 
z"/>
<path fill="#827255" opacity="1.000000" stroke="none" 
	d="
M182.289505,422.397949 
	C183.602600,424.994019 182.657166,427.401093 178.975693,430.857697 
	C178.811890,427.458099 180.767303,425.158325 182.289505,422.397949 
z"/>
<path fill="#897858" opacity="1.000000" stroke="none" 
	d="
M138.597916,133.868439 
	C138.760147,135.863022 137.944351,137.466049 135.220215,137.887695 
	C136.009155,136.639816 137.160095,135.335083 138.597916,133.868439 
z"/>
<path fill="#897858" opacity="1.000000" stroke="none" 
	d="
M146.627930,125.952789 
	C146.743698,128.007202 145.802094,129.537643 143.038635,129.832336 
	C143.888763,128.615631 145.111267,127.358284 146.627930,125.952789 
z"/>
<path fill="#111921" opacity="1.000000" stroke="none" 
	d="
M269.445923,419.108978 
	C242.724167,419.615875 217.418457,415.214325 193.471619,403.992279 
	C179.849762,397.608765 167.354095,389.476746 155.424225,379.802856 
	C139.558716,365.834717 126.060555,350.266815 116.742409,331.592529 
	C86.525047,271.034576 89.651894,212.380768 127.571800,155.949158 
	C128.313583,154.845230 129.088150,153.763306 129.966339,152.348511 
	C143.958984,134.459747 160.222412,119.584854 179.670288,108.374184 
	C259.408813,62.409191 360.721985,89.418182 407.057404,168.952530 
	C407.811981,170.247787 408.584595,171.532532 409.608734,173.052048 
	C417.279175,188.429031 423.493561,204.010880 426.437683,220.701080 
	C436.764801,279.245544 421.320648,330.104767 379.118011,371.869019 
	C349.123505,401.551971 312.295105,417.211365 269.445923,419.108978 
z"/>
<path fill="#111921" opacity="1.000000" stroke="none" 
	d="
M304.815063,67.506912 
	C303.987091,67.914001 303.365631,67.866280 303.282898,67.083595 
	C303.252747,66.798042 303.704834,66.228653 303.992737,66.188408 
	C304.700897,66.089417 305.089813,66.530830 304.815063,67.506912 
z"/>
<path fill="#111921" opacity="1.000000" stroke="none" 
	d="
M204.974884,71.186661 
	C204.197418,71.382500 204.036697,70.975174 204.114288,70.500900 
	C204.145523,70.309990 204.480484,70.168777 204.677246,70.004959 
	C204.827530,70.356270 204.977814,70.707573 204.974884,71.186661 
z"/>
<path fill="#907E5E" opacity="1.000000" stroke="none" 
	d="
M282.368683,353.235962 
	C257.822266,358.000977 234.933563,354.474304 213.154480,342.296387 
	C212.150589,340.022095 212.888214,338.627441 215.091736,337.470123 
	C220.030624,336.505371 223.730316,339.131134 227.669769,340.612183 
	C232.038895,342.254761 236.351196,344.008057 240.933273,344.959473 
	C247.339249,346.289581 249.338837,344.816864 249.457886,338.409119 
	C249.597046,330.919708 249.454575,323.426117 249.501083,315.935242 
	C249.530716,311.160400 247.429459,308.232269 242.942230,306.489777 
	C230.811707,301.779144 220.977295,294.131409 213.961609,283.032654 
	C201.086365,262.664093 203.285294,234.878815 218.513321,216.234528 
	C228.719696,203.738449 241.875412,197.393845 257.313416,194.809418 
	C262.842560,193.883789 268.229309,195.425186 273.667877,195.988266 
	C274.852814,196.110962 275.833862,196.809204 276.403442,198.399384 
	C277.413574,202.410645 277.000549,206.111786 276.102264,209.515427 
	C273.335480,219.999115 275.299774,230.780930 273.640656,241.309692 
	C272.900330,246.007751 276.857391,248.692688 278.641937,252.671234 
	C278.329559,256.415924 275.933350,256.551453 273.524994,256.146149 
	C270.402344,255.620667 267.251678,255.511139 264.119873,255.161850 
	C261.256500,254.842514 258.769745,255.761871 257.303497,258.321320 
	C255.757874,261.019196 257.459534,263.125153 259.147888,264.985901 
	C265.726532,272.236145 271.654175,280.045044 278.537079,287.512787 
	C279.160583,288.959015 279.178986,290.144897 278.365051,291.083313 
	C274.083771,296.019501 275.285828,301.472290 276.912231,307.345825 
	C278.022583,317.354401 277.393982,327.011261 277.438110,336.653595 
	C277.459412,341.309235 278.503937,345.177185 282.898926,348.141937 
	C284.047699,350.086334 283.989685,351.563721 282.368683,353.235962 
z"/>
<path fill="#907F60" opacity="1.000000" stroke="none" 
	d="
M277.161865,254.453033 
	C269.641449,248.796143 271.092957,241.486267 271.507782,233.933197 
	C272.134949,222.513306 272.571014,211.119812 274.944336,199.481140 
	C276.836639,194.924149 279.955994,197.368866 282.187531,198.096283 
	C292.073822,201.319016 300.445587,206.889282 306.867096,215.680511 
	C303.124390,227.177338 306.488159,233.502563 313.731384,238.353775 
	C314.728851,239.021851 315.756287,239.411087 317.327637,239.119110 
	C319.977112,238.545532 322.302216,238.500732 324.637054,238.502426 
	C332.465027,238.508102 340.293213,238.545654 348.120880,238.491806 
	C355.689331,238.439743 357.263611,236.609100 355.344818,229.463928 
	C351.765137,216.133972 345.965454,203.959000 337.118896,193.156693 
	C316.503998,167.984344 289.620361,156.577682 257.654327,157.704620 
	C236.795471,158.439987 218.161179,166.390381 202.124893,179.977264 
	C196.909775,184.395813 191.990662,189.093002 187.896042,194.624100 
	C186.572113,196.412506 185.111160,198.684769 181.857147,196.731873 
	C179.588501,194.529449 180.843689,192.597519 181.727142,190.240723 
	C198.936523,167.830780 221.285583,154.857697 248.721313,150.929932 
	C296.732849,144.056473 345.191528,173.122528 360.635681,219.661240 
	C374.354828,261.001923 361.661926,305.908691 327.402161,332.907349 
	C314.317444,343.218842 299.615692,350.943420 282.370117,353.527283 
	C281.977234,352.205383 281.963989,350.867523 281.940704,349.127777 
	C281.117767,344.868103 284.549164,345.336060 286.369751,344.826874 
	C296.879730,341.887573 306.870209,337.813812 315.911438,331.677399 
	C336.360321,317.798340 349.537018,298.774811 355.503326,274.809662 
	C356.832947,269.468964 355.373566,267.653748 349.903381,267.545349 
	C341.909943,267.386871 333.910126,267.613190 325.917419,267.457367 
	C321.479126,267.370850 319.199768,269.261902 317.281677,273.342804 
	C309.962250,288.915375 299.231293,301.231781 282.393402,307.051819 
	C280.252777,307.791748 278.016968,308.939545 275.389099,307.213562 
	C271.394684,300.634705 272.087402,292.521637 276.824921,288.268799 
	C276.304535,287.004547 275.767883,285.884430 276.637726,284.841522 
	C279.467712,281.448425 277.593262,278.953461 275.399841,276.219910 
	C273.720306,274.126831 271.379547,272.282806 271.537933,268.801483 
	C272.734039,266.703918 271.532867,264.583954 272.887054,262.495789 
	C274.713440,260.385986 276.860260,260.710938 279.282898,260.552002 
	C281.209290,260.558105 282.729797,260.563141 284.597626,260.806091 
	C289.731201,261.466980 294.482880,262.386261 299.313782,262.403290 
	C301.890991,262.412415 304.352203,261.764557 305.682648,259.238190 
	C307.003174,256.730774 305.600647,254.719025 304.117737,252.881561 
	C299.835571,247.575409 295.682831,242.158600 291.102112,237.102341 
	C289.830139,235.698318 288.329315,233.274414 286.246826,234.988327 
	C283.920959,236.902527 286.219666,238.824585 287.389648,240.525299 
	C289.655701,243.819214 292.622528,246.560486 294.817657,249.917389 
	C295.560760,251.053757 296.421814,252.102585 295.364441,253.882431 
	C294.738647,254.925964 294.259491,255.600616 293.295776,256.462830 
	C287.515411,257.996307 282.284943,257.589600 277.161865,254.453033 
z"/>
<path fill="#8A795A" opacity="1.000000" stroke="none" 
	d="
M181.637390,189.999847 
	C182.230667,191.745377 182.537720,193.674408 182.982498,195.997696 
	C185.465652,198.926300 183.578552,201.019608 182.314102,203.061096 
	C172.870956,218.307266 168.220245,234.873672 168.498367,252.808228 
	C169.031433,287.185211 183.905609,313.692444 212.364441,332.761627 
	C214.316498,334.069641 217.188553,334.747955 216.580383,338.429810 
	C215.404999,339.701874 214.397873,340.624939 213.154572,341.795349 
	C199.757462,335.590240 189.525314,325.668671 180.793350,314.193939 
	C153.024994,277.703400 153.336685,226.579819 181.637390,189.999847 
z"/>
<path fill="#8C7B5D" opacity="1.000000" stroke="none" 
	d="
M406.657104,269.847382 
	C406.352112,273.236755 403.713715,273.506836 401.680847,274.434479 
	C399.171539,275.579590 396.620392,276.633057 394.173462,278.771698 
	C396.828613,279.250214 399.492249,279.687134 402.135345,280.224915 
	C403.445587,280.491486 404.792725,280.815216 404.505005,282.729614 
	C404.194122,284.798218 402.968048,284.897095 401.258606,284.569885 
	C397.023804,283.759216 392.756805,283.116394 388.523743,282.297607 
	C387.341248,282.068878 385.549866,282.442871 385.373993,280.584930 
	C385.208557,278.837372 385.864899,277.410431 387.718353,276.651917 
	C391.165497,275.241150 394.554626,273.688599 397.772400,271.233734 
	C394.906708,270.704163 392.030731,270.223206 389.181030,269.618286 
	C388.202057,269.410492 387.246887,268.881042 387.481720,267.589081 
	C387.661560,266.599915 388.014832,265.352173 389.249878,265.622101 
	C395.063843,266.892822 401.405975,265.802765 406.657104,269.847382 
z"/>
<path fill="#897858" opacity="1.000000" stroke="none" 
	d="
M204.582596,131.297806 
	C205.364105,133.940491 206.354309,136.401184 207.445221,138.816406 
	C208.065796,140.190338 207.615448,140.989960 206.365738,141.595474 
	C205.035141,142.240189 204.145111,141.822540 203.569580,140.545380 
	C201.526825,136.012344 199.489471,131.476852 197.453522,126.940758 
	C196.918274,125.748199 196.926285,124.732063 198.250015,123.997993 
	C199.514191,123.296967 200.660858,123.158585 201.949295,124.019272 
	C204.959152,126.029884 208.028976,127.950699 211.610245,130.252151 
	C211.722748,126.675377 209.816071,124.454071 208.942825,121.929695 
	C208.478012,120.586014 208.046509,119.520546 209.776581,118.660492 
	C211.501724,117.802879 212.221420,118.654099 212.821869,119.986580 
	C214.728668,124.217964 216.626297,128.453613 218.497528,132.700806 
	C219.033661,133.917664 219.635971,135.177979 218.046158,136.172653 
	C216.809082,136.946655 215.637451,137.105820 214.346466,136.259872 
	C211.574295,134.443344 208.764221,132.684662 205.651443,130.777527 
	C204.840225,130.433411 204.656097,130.561661 204.582596,131.297806 
z"/>
<path fill="#8C7B5D" opacity="1.000000" stroke="none" 
	d="
M396.526459,221.655685 
	C399.292786,221.484070 402.254456,219.391678 403.809265,221.939331 
	C405.709198,225.052475 402.195557,226.470383 400.453522,228.266373 
	C398.855499,229.913971 397.112427,231.420868 394.779999,233.600204 
	C398.010071,234.429306 400.293457,233.636108 402.606873,233.277649 
	C403.959564,233.068069 405.645081,232.278366 406.174927,234.614532 
	C406.754730,237.171234 404.861389,237.322876 403.274536,237.621964 
	C399.189850,238.391891 395.088318,239.076248 390.984100,239.736267 
	C389.722443,239.939178 388.226685,240.484650 387.459717,238.875717 
	C386.650909,237.178940 387.067047,235.706146 388.515564,234.423187 
	C391.230347,232.018723 393.865784,229.524689 396.213318,226.151917 
	C393.578522,226.506012 390.943787,226.860291 388.308990,227.214157 
	C386.957886,227.395645 385.560272,227.653519 385.168304,225.772614 
	C384.733246,223.684998 386.048279,223.216400 387.710846,222.989304 
	C390.512024,222.606659 393.304260,222.158585 396.526459,221.655685 
z"/>
<path fill="#897858" opacity="1.000000" stroke="none" 
	d="
M201.880066,378.941193 
	C200.922241,380.607086 200.586685,382.740875 198.190735,381.470734 
	C196.216003,380.423859 197.149139,378.985596 197.749664,377.631927 
	C199.435211,373.832458 201.108078,370.026703 202.857559,366.256653 
	C203.374115,365.143463 203.507294,363.426208 205.314789,363.630280 
	C207.173676,363.840149 208.249420,365.035706 208.527267,366.916779 
	C209.060318,370.525513 209.606598,374.132263 210.223541,378.247833 
	C212.783569,376.283173 213.042007,373.501190 214.303772,371.346832 
	C215.044403,370.082275 215.464630,368.361298 217.531143,369.180206 
	C219.563873,369.985687 218.997803,371.427551 218.343384,372.878632 
	C216.566330,376.819214 214.828476,380.777588 213.026825,384.706757 
	C212.491760,385.873627 212.092209,387.345459 210.263870,386.970642 
	C208.584000,386.626312 207.708298,385.507965 207.456055,383.876190 
	C206.898941,380.272125 206.369644,376.663757 205.756775,372.575348 
	C203.311401,374.215088 203.155731,376.726196 201.880066,378.941193 
z"/>
<path fill="#827255" opacity="1.000000" stroke="none" 
	d="
M169.473022,355.442383 
	C164.996323,357.348785 157.183395,353.425659 156.036591,349.152985 
	C155.648941,347.708679 156.662720,347.014252 157.435608,346.230682 
	C159.877563,343.755096 162.377792,341.336853 164.860428,338.901489 
	C169.175308,334.668762 169.176865,334.670349 173.527130,339.661102 
	C177.231750,343.911163 177.282898,346.722321 172.831360,349.354492 
	C170.242828,350.885071 171.646027,353.747009 169.473022,355.442383 
z"/>
<path fill="#897858" opacity="1.000000" stroke="none" 
	d="
M227.616638,118.503304 
	C225.488541,112.927063 228.848083,112.300354 232.662277,111.779106 
	C237.018967,111.183731 240.735062,112.103233 242.966522,116.085373 
	C244.949661,119.624413 245.222626,123.452293 242.838165,126.977585 
	C240.193893,130.886963 235.781937,131.030777 231.701477,131.629990 
	C230.149887,131.857834 230.053284,130.304092 229.820541,129.181915 
	C229.111099,125.761253 228.417953,122.337196 227.616638,118.503304 
z"/>
<path fill="#8A795A" opacity="1.000000" stroke="none" 
	d="
M301.116241,114.049423 
	C305.090363,114.009926 304.468201,116.279533 303.554413,118.394722 
	C302.339264,121.207489 303.173279,122.562950 306.027039,123.566498 
	C309.104462,124.648697 310.226318,123.446495 311.019958,120.734779 
	C311.461456,119.226326 311.419037,116.664856 314.394379,117.854225 
	C316.941498,118.872406 315.546265,120.579468 315.100342,122.007202 
	C313.909729,125.819290 312.584198,129.589096 311.328888,133.381180 
	C310.790649,135.007141 310.339722,136.788620 307.992920,135.973038 
	C305.770386,135.200623 306.842316,133.493408 307.200897,132.199142 
	C307.830383,129.926895 308.986938,127.945229 305.492828,126.656136 
	C302.080719,125.397308 300.602722,126.264389 299.789215,129.621094 
	C299.456909,130.992401 299.341522,133.246933 296.671753,132.326187 
	C294.057098,131.424454 295.306702,129.731598 295.804291,128.280930 
	C297.418427,123.575226 299.116913,118.898445 301.116241,114.049423 
z"/>
<path fill="#8B7A5B" opacity="1.000000" stroke="none" 
	d="
M295.682007,376.562958 
	C294.948608,374.725006 295.121552,373.593414 296.880157,373.142487 
	C299.042175,372.588104 299.250946,374.331451 299.882385,375.640106 
	C300.763336,377.465820 300.254944,380.660797 304.193176,379.312256 
	C307.171753,378.292358 309.037354,377.277344 307.482330,373.731964 
	C306.855865,372.303650 305.923462,370.378204 308.249298,369.499634 
	C311.175079,368.394440 311.019684,371.160736 311.569153,372.619568 
	C312.917084,376.198090 314.018127,379.869934 315.203979,383.508972 
	C315.705109,385.046783 316.763641,386.761505 314.380920,387.682678 
	C311.868011,388.654205 311.466278,386.506805 311.195709,385.041138 
	C310.464294,381.079041 308.448029,380.929352 305.187500,382.242676 
	C302.068817,383.498840 303.107605,385.378021 303.740021,387.484863 
	C304.183228,388.961487 305.278778,390.808868 302.786407,391.614990 
	C300.203491,392.450348 300.211884,390.234497 299.715210,388.780182 
	C298.370880,384.843750 297.104858,380.880554 295.682007,376.562958 
z"/>
<path fill="#8C7B5D" opacity="1.000000" stroke="none" 
	d="
M378.962402,336.881683 
	C379.243774,340.214478 377.980560,341.154572 375.302826,339.359100 
	C371.429474,336.761932 367.621735,334.067047 363.774597,331.430511 
	C362.531464,330.578613 361.814331,329.723724 362.957214,328.195984 
	C364.091675,326.679565 365.096863,327.314636 366.380554,327.951935 
	C368.310852,328.910278 369.972931,332.022705 372.587402,328.572784 
	C374.495178,326.055389 375.334991,324.227325 371.924652,322.320953 
	C370.595337,321.577911 368.023193,320.869873 369.776764,318.299133 
	C371.528748,315.730865 372.977936,317.946869 374.317932,318.808929 
	C377.538086,320.880585 380.671173,323.092041 383.782410,325.326447 
	C385.045654,326.233643 387.058105,326.976746 385.675018,329.165283 
	C384.253082,331.415314 382.656311,329.955322 381.534241,328.947266 
	C377.529358,325.349304 375.873535,328.680176 374.686188,331.483521 
	C373.196838,334.999878 377.528778,334.755249 378.962402,336.881683 
z"/>
<path fill="#897858" opacity="1.000000" stroke="none" 
	d="
M139.359497,208.603271 
	C140.729385,211.038696 146.099365,209.853043 144.331177,213.696869 
	C142.687561,217.269852 139.777542,213.647141 137.484039,213.196274 
	C135.399536,212.786514 133.327423,211.936813 131.461441,210.900177 
	C129.655457,209.896896 125.890762,210.436188 126.552063,207.269516 
	C127.339951,203.496628 128.401398,199.302658 132.585648,197.483032 
	C135.515900,196.208740 137.888367,197.560318 139.357681,200.047760 
	C140.755875,202.414795 142.633209,201.589600 144.565842,201.551010 
	C145.970490,201.522964 148.258987,199.889938 148.598679,202.513702 
	C148.881683,204.699677 146.783691,205.192719 144.865402,205.639114 
	C142.855209,206.106918 139.866608,204.773804 139.359497,208.603271 
z"/>
<path fill="#8C7B5D" opacity="1.000000" stroke="none" 
	d="
M369.169861,186.488190 
	C368.974548,184.482468 370.389679,183.900055 371.449982,183.284424 
	C374.139984,181.722504 374.647095,180.215530 372.777496,177.362396 
	C370.651428,174.117905 368.965454,175.307648 366.786896,176.932022 
	C365.548065,177.855774 364.161041,179.434692 362.653442,177.157059 
	C361.122070,174.843491 363.317474,174.281433 364.509949,173.416382 
	C367.740448,171.072876 371.032104,168.808868 374.368774,166.618912 
	C375.612000,165.802948 376.956482,163.950058 378.540527,166.172714 
	C380.057373,168.301086 378.236755,169.191330 376.852478,169.992996 
	C374.290314,171.476868 373.215424,172.902054 375.329346,175.842911 
	C377.164642,178.396149 378.646454,178.500031 380.983032,176.759766 
	C382.274841,175.797607 383.893494,173.777481 385.496582,176.382660 
	C387.069214,178.938324 384.446686,179.461349 383.164429,180.410126 
	C379.957062,182.783356 376.599182,184.952011 373.341858,187.259476 
	C371.803833,188.349030 370.420044,188.987961 369.169861,186.488190 
z"/>
<path fill="#8A795A" opacity="1.000000" stroke="none" 
	d="
M169.679825,169.618408 
	C164.355545,167.003372 161.139374,162.236847 156.958664,158.536346 
	C156.601364,158.220093 156.074829,157.615112 156.173019,157.337051 
	C157.392685,153.882339 160.043594,151.597183 163.149323,150.072479 
	C165.650696,148.844482 168.146820,149.665146 169.539261,152.226364 
	C170.262756,153.557144 170.626770,154.469437 172.519943,154.824402 
	C177.246201,155.710526 178.587738,159.339386 175.761017,163.296753 
	C174.140259,165.565765 171.933243,167.416000 169.679825,169.618408 
z"/>
<path fill="#8A795A" opacity="1.000000" stroke="none" 
	d="
M240.460602,376.321869 
	C244.907242,380.822693 245.523727,386.148438 242.375244,390.397614 
	C239.735779,393.959839 233.464157,395.020508 228.618179,392.947571 
	C226.700058,392.127075 226.821381,390.768829 227.081970,389.289154 
	C227.513397,386.839294 228.067566,384.410706 228.584503,381.976227 
	C230.584946,372.555664 231.077866,372.306946 240.460602,376.321869 
z"/>
<path fill="#897858" opacity="1.000000" stroke="none" 
	d="
M133.719299,302.341064 
	C135.383987,298.626770 133.841278,298.253265 130.989960,299.062683 
	C129.394409,299.515625 127.358009,301.215332 126.402367,298.464752 
	C125.325668,295.365753 128.358582,295.587067 129.933533,294.901154 
	C132.968155,293.579620 136.070953,292.366638 139.238281,291.418793 
	C140.740448,290.969269 142.767426,288.780975 143.984116,291.257660 
	C145.623840,294.595520 147.826630,298.042603 146.367432,302.078339 
	C145.480057,304.532623 143.319199,306.034851 140.919098,305.441315 
	C137.806839,304.671692 135.920471,305.731842 133.984222,307.862152 
	C133.187119,308.739136 132.311996,310.992554 130.548859,309.161774 
	C129.304306,307.869446 129.952377,306.406372 131.119904,305.209930 
	C131.930298,304.379486 132.694794,303.504272 133.719299,302.341064 
z"/>
<path fill="#8C7B5D" opacity="1.000000" stroke="none" 
	d="
M343.301453,349.254028 
	C344.852509,346.827454 346.213837,347.155273 347.755585,348.903900 
	C349.736237,351.150391 351.846130,353.283813 353.921448,355.445709 
	C355.649139,357.245453 357.615479,357.805908 359.629974,356.027466 
	C361.721161,354.181335 361.174042,352.182556 359.509308,350.356018 
	C357.378662,348.018250 355.201569,345.722260 353.018768,343.432861 
	C351.973358,342.336426 351.516113,341.315979 352.793091,340.023376 
	C354.141144,338.658752 355.101532,339.317200 356.109528,340.412872 
	C358.138611,342.618469 360.239594,344.759766 362.221741,347.006256 
	C366.028809,351.321014 365.810394,354.869965 361.597595,358.616211 
	C357.693451,362.087982 354.251953,361.932373 350.363800,357.795868 
	C347.874878,355.148010 344.922150,352.880280 343.301453,349.254028 
z"/>
<path fill="#8C7B5D" opacity="1.000000" stroke="none" 
	d="
M350.127228,159.010849 
	C352.832428,161.104019 354.709442,160.133316 356.469788,158.171982 
	C358.472717,155.940338 360.564728,153.788818 362.581848,151.569611 
	C363.626740,150.420059 364.576080,149.937759 365.868774,151.309326 
	C366.870636,152.372375 366.934387,153.277939 365.948120,154.316818 
	C363.196442,157.215363 360.717499,160.449600 357.635468,162.937592 
	C354.084015,165.804489 350.684540,163.882797 347.844177,161.218704 
	C345.030914,158.579971 343.622375,155.351303 346.248718,151.915878 
	C348.564789,148.886292 351.390137,146.246475 353.985077,143.429428 
	C354.869293,142.469513 355.725464,141.962509 356.909088,143.097961 
	C358.095947,144.236557 358.257965,145.256775 357.065430,146.490646 
	C354.981171,148.647171 352.942505,150.848206 350.905029,153.049423 
	C349.364105,154.714233 348.058472,156.446136 350.127228,159.010849 
z"/>
<path fill="#8B7A5B" opacity="1.000000" stroke="none" 
	d="
M321.547058,142.142578 
	C319.468445,140.820786 320.271637,139.789032 321.381195,138.836182 
	C325.145447,135.603500 328.939148,132.405090 332.700104,129.168533 
	C333.951721,128.091431 335.120453,127.702209 336.699554,128.700562 
	C338.225861,129.665543 338.543945,130.830536 338.191071,132.472504 
	C337.149445,137.318771 336.181732,142.180878 335.162506,147.032028 
	C334.968872,147.953522 335.001495,149.184570 333.612305,149.142410 
	C332.573212,149.110870 331.696777,148.514191 331.290649,147.529312 
	C328.310760,140.302765 328.321228,140.298447 321.547058,142.142578 
z"/>
<path fill="#897858" opacity="1.000000" stroke="none" 
	d="
M154.885498,326.903168 
	C152.618179,329.797363 150.611893,332.447083 148.490341,335.001068 
	C147.845520,335.777313 147.302994,337.404083 145.844696,336.403076 
	C144.676926,335.601532 144.504684,334.401825 144.995667,332.883362 
	C146.503342,328.220428 145.306244,326.464966 140.189011,325.728546 
	C138.811111,325.530243 137.990982,324.889984 137.693863,323.711609 
	C137.230026,321.872070 138.890976,322.038025 139.881058,321.787567 
	C144.224472,320.688995 148.596130,319.702545 152.944519,318.622925 
	C154.724640,318.180969 156.375061,317.490814 157.832657,319.484558 
	C159.533585,321.811096 157.762527,323.118378 156.647003,324.667480 
	C156.162231,325.340668 155.618958,325.971710 154.885498,326.903168 
z"/>
<path fill="#8B7A5B" opacity="1.000000" stroke="none" 
	d="
M327.126404,371.897888 
	C326.488770,368.726593 325.975006,365.952484 325.342224,363.205750 
	C324.972382,361.600372 325.748413,360.758545 326.965973,359.968048 
	C328.229980,359.147430 329.316925,358.992676 330.549957,360.052551 
	C334.451996,363.406921 338.419373,366.685242 342.321045,370.040039 
	C343.132263,370.737488 344.473724,371.519714 343.127136,372.806671 
	C342.293945,373.602966 341.368469,373.919861 339.995758,373.417480 
	C335.196228,371.661163 333.330780,372.830872 332.428589,378.077209 
	C332.184357,379.497559 331.412445,380.206909 330.273834,380.444244 
	C328.389069,380.837189 328.790131,379.017670 328.509705,378.125702 
	C327.915466,376.235565 327.618927,374.251862 327.126404,371.897888 
z"/>
<path fill="#8C7B5D" opacity="1.000000" stroke="none" 
	d="
M384.616638,307.369751 
	C382.855133,305.826965 381.392944,304.475189 379.847229,303.226837 
	C378.641388,302.252991 378.362579,301.200653 378.947235,299.749603 
	C379.510040,298.352753 380.340790,297.580566 381.908997,297.649017 
	C387.040344,297.873016 392.174133,298.043091 397.304596,298.283997 
	C398.254639,298.328613 399.534271,298.348663 399.590881,299.624695 
	C399.643494,300.811157 398.958069,301.622437 397.622894,302.088196 
	C392.496918,303.876282 391.849548,305.586578 394.419861,310.666962 
	C395.096924,312.005188 394.659546,312.979645 393.986115,313.847412 
	C392.754242,315.434692 391.969818,313.714539 391.256927,313.146118 
	C389.057190,311.392090 386.995392,309.465088 384.616638,307.369751 
z"/>
<path fill="#897858" opacity="1.000000" stroke="none" 
	d="
M123.481781,237.614410 
	C121.374725,237.190643 119.683098,236.849930 120.196098,234.446640 
	C120.680931,232.175247 120.987816,229.847000 121.692078,227.645874 
	C122.667938,224.595901 125.007980,222.911102 128.169128,223.325394 
	C131.635147,223.779617 133.496338,226.271423 133.210052,229.666565 
	C132.921051,233.094040 133.269577,235.506226 137.413956,235.678253 
	C138.762924,235.734238 139.392441,236.625183 139.173355,238.108902 
	C138.877731,240.110962 137.572662,239.831635 136.212494,239.617966 
	C132.105896,238.972809 127.997185,238.341248 123.481781,237.614410 
z"/>
<path fill="#897858" opacity="1.000000" stroke="none" 
	d="
M150.731995,190.109985 
	C147.822311,186.463943 145.126511,183.084106 142.443588,179.694046 
	C141.509140,178.513321 140.565186,177.406433 141.575989,175.693390 
	C142.628510,173.909622 144.093491,173.711349 145.845184,174.131226 
	C150.530136,175.254242 155.217896,176.367554 159.885437,177.559479 
	C160.754562,177.781433 162.099045,177.856964 161.920914,179.232437 
	C161.763382,180.449158 160.976105,181.149979 159.594147,181.396194 
	C154.162994,182.363876 153.113464,183.928253 154.697571,188.786484 
	C155.138840,190.139786 154.899475,191.232758 153.954300,191.895370 
	C152.273560,193.073669 151.859863,191.096603 150.731995,190.109985 
z"/>
<path fill="#8C7B5D" opacity="1.000000" stroke="none" 
	d="
M393.705383,196.667267 
	C397.929413,198.059738 398.234192,200.177795 395.272430,202.820160 
	C391.794098,205.923386 388.281189,208.990128 384.707977,211.982819 
	C383.959808,212.609421 383.218964,214.239685 381.913971,212.988083 
	C380.910889,212.026047 380.834167,210.831894 381.596252,209.381760 
	C383.940308,204.921326 383.023376,202.600082 378.447693,201.197067 
	C377.159637,200.802109 376.243347,200.269104 376.258270,198.939941 
	C376.277039,197.271667 377.749573,197.366852 378.837555,197.308411 
	C383.658783,197.049438 388.484772,196.878204 393.705383,196.667267 
z"/>
<path fill="#897858" opacity="1.000000" stroke="none" 
	d="
M134.007935,280.885376 
	C130.430496,280.477112 128.484695,278.580200 127.903076,275.512756 
	C127.372292,272.713379 126.071220,271.469391 123.139336,272.000519 
	C121.881416,272.228363 120.364471,272.380676 120.060310,270.452301 
	C119.720154,268.295746 121.231400,268.043823 122.779907,267.788666 
	C125.729225,267.302795 128.688843,266.322174 131.614746,266.420746 
	C134.139053,266.505798 137.912354,262.942719 139.185791,268.443054 
	C140.954727,276.083618 139.952728,278.891571 134.007935,280.885376 
z"/>
<path fill="#897858" opacity="1.000000" stroke="none" 
	d="
M277.270844,115.729248 
	C275.517181,123.310997 275.941101,124.053352 283.044220,126.172203 
	C283.880463,126.421661 284.711304,126.583580 284.778290,127.598495 
	C284.873505,129.040512 283.708496,129.068314 282.748566,129.170700 
	C278.815979,129.590073 275.302490,128.670227 273.308289,125.018028 
	C271.039856,120.863510 271.340179,116.591782 274.256744,112.822083 
	C276.767181,109.577301 280.300018,108.953117 284.178497,109.829353 
	C285.185364,110.056831 286.266449,110.291565 286.133789,111.607750 
	C285.963593,113.296204 284.609283,113.146919 283.468658,112.952904 
	C280.946075,112.523811 278.829529,112.966980 277.270844,115.729248 
z"/>
<path fill="#8A795A" opacity="1.000000" stroke="none" 
	d="
M273.758118,392.059570 
	C270.219208,383.293152 272.901978,377.224609 280.410553,376.191071 
	C281.919891,375.983276 283.819366,375.725311 284.092255,377.604828 
	C284.375336,379.554230 282.332489,379.049500 281.156372,379.293243 
	C276.651154,380.226807 275.946320,383.380493 276.611938,387.207031 
	C277.298065,391.151428 279.249268,393.643982 283.756409,392.704773 
	C284.837006,392.479584 286.189697,391.677521 286.631317,393.366364 
	C287.134521,395.290802 285.347809,395.463531 284.180847,395.720490 
	C280.169342,396.603699 276.614105,395.834198 273.758118,392.059570 
z"/>
<path fill="#897858" opacity="1.000000" stroke="none" 
	d="
M185.896088,139.061859 
	C188.599167,141.756104 189.042603,146.106781 193.448502,146.761887 
	C194.869614,146.973190 194.482986,148.261398 193.580765,148.972763 
	C192.147278,150.103012 190.651733,151.168381 189.103867,152.135452 
	C187.812775,152.942093 187.131027,152.802078 186.994064,150.928940 
	C186.586533,145.355560 183.254562,141.451233 178.726105,138.794037 
	C176.851532,137.694077 176.930191,137.234299 178.191895,136.101959 
	C179.053299,135.328873 180.014526,134.635300 181.019516,134.060791 
	C182.844299,133.017639 185.381592,130.689316 184.184280,135.745071 
	C183.985458,136.584656 185.155746,137.748459 185.896088,139.061859 
z"/>
<path fill="#827255" opacity="1.000000" stroke="none" 
	d="
M179.580750,370.347412 
	C177.943451,368.913269 175.559372,368.580627 179.388550,366.489990 
	C183.202438,364.407684 186.547699,360.155701 186.931564,355.466614 
	C187.233902,351.773499 188.277267,352.944366 189.979263,354.021118 
	C191.098907,354.729462 192.188263,355.507904 193.191666,356.370667 
	C193.991760,357.058624 194.577515,358.010437 193.230377,358.717804 
	C188.056061,361.434662 185.504028,365.582581 184.254578,371.411316 
	C183.548706,374.704285 181.443222,370.718506 179.580750,370.347412 
z"/>
<path fill="#111920" opacity="1.000000" stroke="none" 
	d="
M216.755585,338.842651 
	C206.401459,332.137604 196.678024,325.149170 188.836304,315.895386 
	C161.318024,283.421783 157.957794,236.953552 180.512985,200.829681 
	C181.307159,199.557739 182.102142,198.286285 183.008484,196.703278 
	C195.138870,180.239334 210.206451,168.025177 229.229538,161.051712 
	C269.483002,146.295624 313.363831,158.797073 339.995911,192.461624 
	C350.238068,205.408401 356.641235,219.994705 359.529449,236.244431 
	C360.204102,240.040131 359.070251,240.902542 355.570618,240.864639 
	C343.074921,240.729279 330.577026,240.793030 317.623749,240.737366 
	C315.328918,240.329590 314.403107,238.982773 313.778778,237.406357 
	C311.653259,232.039291 309.303497,226.782593 306.211670,221.892105 
	C305.368561,220.558487 305.741608,219.018616 305.161133,217.284393 
	C297.330109,207.626495 287.601379,201.633148 275.389404,199.071457 
	C256.105713,194.375549 239.548798,199.439911 225.632095,212.295380 
	C205.074417,231.285385 202.147430,261.698273 218.251434,284.599426 
	C225.240738,294.538727 234.700043,301.582214 246.483047,304.922638 
	C250.470871,306.053192 251.701843,307.892731 251.604385,311.910431 
	C251.345932,322.565002 251.343582,333.234131 251.596542,343.888977 
	C251.704590,348.439758 250.387451,349.674500 245.822174,348.776428 
	C235.763535,346.797729 226.311218,343.248169 216.755585,338.842651 
z"/>
<path fill="#111921" opacity="1.000000" stroke="none" 
	d="
M275.105957,307.487427 
	C283.733856,303.640930 292.459229,300.520294 299.482269,293.930878 
	C307.133881,286.751740 312.960999,278.597351 315.490387,268.287537 
	C316.077179,265.895721 317.230988,264.441376 320.182007,264.481628 
	C331.996246,264.642883 343.814728,264.620392 355.630005,264.501404 
	C359.236816,264.465057 360.062286,265.630615 359.497375,269.255157 
	C353.458130,308.001892 323.182831,339.231140 282.250122,348.543701 
	C275.178802,349.302277 275.174713,349.302277 275.167328,342.611847 
	C275.154541,331.059174 275.147369,319.506531 275.105957,307.487427 
z"/>
<path fill="#8B7A5B" opacity="1.000000" stroke="none" 
	d="
M276.580261,253.973267 
	C282.032074,254.334778 287.064148,254.669571 292.547333,255.004456 
	C293.917603,254.918503 294.412140,254.462036 294.161377,253.243469 
	C290.457520,248.607803 287.030548,244.115570 283.322479,239.868729 
	C280.648926,236.806656 280.916687,234.270737 283.878235,231.775650 
	C287.005249,229.141190 289.320099,230.644592 291.448547,233.264832 
	C296.680542,239.705597 301.918457,246.141769 307.196045,252.545135 
	C308.938080,254.658752 310.756836,256.807190 309.165131,259.666107 
	C307.582092,262.509491 305.300018,264.569183 301.780914,264.930908 
	C296.423584,265.481659 291.223175,263.734985 285.449677,263.996826 
	C283.827576,263.933807 282.604309,264.200775 281.262573,263.243042 
	C278.958344,262.999268 276.916656,262.998566 274.437500,262.998138 
	C270.420349,264.935608 273.042175,267.275177 273.787903,269.742920 
	C275.356323,271.854187 276.603302,273.799408 278.096466,275.532562 
	C283.639679,281.966553 283.668335,281.973083 277.211487,287.741150 
	C273.978210,287.219391 272.623352,284.601227 270.802673,282.468781 
	C266.055817,276.909027 261.105530,271.515167 256.541656,265.810883 
	C254.739502,263.558319 250.790970,261.211029 253.353256,257.844269 
	C255.869125,254.538467 259.153992,251.352081 264.305817,252.332413 
	C268.218109,253.076859 272.206207,253.423096 276.580261,253.973267 
z"/>
<path fill="#8B7A5B" opacity="1.000000" stroke="none" 
	d="
M304.864746,217.284485 
	C311.397461,223.382294 314.315582,231.619370 317.086975,240.333923 
	C311.124969,241.500732 303.892609,235.171539 303.149139,228.269424 
	C302.756714,224.626343 302.822968,220.979172 304.864746,217.284485 
z"/>
<path fill="#907E5E" opacity="1.000000" stroke="none" 
	d="
M273.997162,269.568115 
	C272.912903,269.001343 271.704529,268.097900 270.781769,266.962341 
	C269.887451,265.861816 268.404877,264.586060 269.307251,263.076385 
	C270.256927,261.487549 271.953186,262.395355 273.679504,262.880249 
	C273.999329,265.042236 273.998657,267.086060 273.997162,269.568115 
z"/>
<path fill="#907E5E" opacity="1.000000" stroke="none" 
	d="
M281.164917,263.246552 
	C282.127136,263.229919 283.254303,263.459839 284.691956,263.843079 
	C283.656952,264.713501 282.385193,264.892609 281.164917,263.246552 
z"/>
<path fill="#907E5E" opacity="1.000000" stroke="none" 
	d="
M293.878845,253.246109 
	C294.543335,253.510757 295.276245,254.007446 294.962616,254.862411 
	C294.695343,255.590927 294.011322,255.422241 293.208069,255.104492 
	C293.249908,254.502121 293.501373,253.999680 293.878845,253.246109 
z"/>
<path fill="#111921" opacity="1.000000" stroke="none" 
	d="
M204.584045,131.289612 
	C204.160660,130.895737 203.743942,130.157455 205.154953,130.489929 
	C205.167587,130.795303 205.001968,130.937851 204.584045,131.289612 
z"/>
<path fill="#111921" opacity="1.000000" stroke="none" 
	d="
M165.931366,352.517395 
	C163.185303,352.242798 161.070221,351.312897 161.703934,348.399109 
	C161.924774,347.383667 163.266418,345.774902 164.730484,346.783813 
	C166.604263,348.075043 168.693893,349.712799 165.931366,352.517395 
z"/>
<path fill="#111921" opacity="1.000000" stroke="none" 
	d="
M170.546021,341.556885 
	C172.128677,343.220886 172.526672,344.685608 170.602997,345.855774 
	C169.093292,346.774139 167.834900,345.724030 167.457092,344.535889 
	C166.751038,342.315613 168.045380,341.293488 170.546021,341.556885 
z"/>
<path fill="#111921" opacity="1.000000" stroke="none" 
	d="
M232.368805,120.470657 
	C232.376099,118.303223 230.576935,115.893265 233.605621,115.099426 
	C236.497101,114.341553 238.277069,115.891106 239.335785,118.532349 
	C239.972549,120.120880 240.142853,121.732712 239.955017,123.391319 
	C239.672913,125.882530 238.046692,127.345032 235.756927,127.608971 
	C232.971939,127.929977 233.625549,125.299614 233.086578,123.783485 
	C232.757996,122.859177 232.665756,121.850868 232.368805,120.470657 
z"/>
<path fill="#111921" opacity="1.000000" stroke="none" 
	d="
M131.590240,202.902618 
	C133.183014,200.962234 134.689804,201.182297 136.138779,202.424438 
	C137.426041,203.527969 136.788864,204.785004 136.292465,206.059692 
	C135.577835,207.894684 134.331009,207.372543 133.024658,206.984879 
	C130.945328,206.367813 130.448593,205.106018 131.590240,202.902618 
z"/>
<path fill="#111921" opacity="1.000000" stroke="none" 
	d="
M169.250946,164.356476 
	C167.622894,162.982971 165.846451,161.857147 167.861053,159.856796 
	C169.018265,158.707764 170.334717,157.288269 172.065948,158.600616 
	C173.803040,159.917404 173.034149,161.544983 171.866272,162.848999 
	C171.245697,163.541931 170.334579,163.974640 169.250946,164.356476 
z"/>
<path fill="#111921" opacity="1.000000" stroke="none" 
	d="
M165.230255,158.126953 
	C162.565170,159.069702 161.354736,157.636703 161.583359,155.692062 
	C161.764526,154.151077 163.578354,153.385574 165.161087,154.051666 
	C167.406616,154.996674 166.959351,156.470245 165.230255,158.126953 
z"/>
<path fill="#111921" opacity="1.000000" stroke="none" 
	d="
M239.269043,386.967224 
	C237.900299,389.800507 236.109329,391.511353 233.256332,390.235535 
	C230.411987,388.963562 232.386627,386.533203 232.411102,384.600433 
	C232.419205,383.959595 232.634125,383.300354 232.857834,382.687256 
	C233.511490,380.895691 232.568741,377.777435 235.883011,378.057373 
	C239.093048,378.328491 240.172607,380.733917 239.977768,383.725037 
	C239.914612,384.694550 239.618622,385.648956 239.269043,386.967224 
z"/>
<path fill="#111921" opacity="1.000000" stroke="none" 
	d="
M142.658508,296.202515 
	C143.397354,298.730804 143.815796,300.901794 140.558029,301.294952 
	C138.261810,301.572021 137.383560,299.647217 137.527466,298.216248 
	C137.827591,295.232208 140.111649,295.143402 142.658508,296.202515 
z"/>
<path fill="#111921" opacity="1.000000" stroke="none" 
	d="
M332.474792,134.632477 
	C333.322968,136.320831 333.211212,138.848190 332.556580,139.365005 
	C331.711273,140.032318 331.052917,139.436401 330.383362,139.036301 
	C329.640747,138.592514 328.980652,137.969589 329.690674,137.117584 
	C330.411896,136.252136 331.346161,135.564255 332.474792,134.632477 
z"/>
<path fill="#111921" opacity="1.000000" stroke="none" 
	d="
M147.490784,324.137817 
	C148.925125,323.260864 150.135941,322.774658 151.731812,323.342407 
	C151.986115,325.238464 150.691147,326.612183 149.318008,326.990723 
	C147.797913,327.409821 147.227478,325.849701 147.490784,324.137817 
z"/>
<path fill="#111921" opacity="1.000000" stroke="none" 
	d="
M153.429016,322.476624 
	C153.404465,322.476624 153.453552,322.476624 153.429016,322.476624 
z"/>
<path fill="#111921" opacity="1.000000" stroke="none" 
	d="
M333.725311,368.010803 
	C334.946045,370.217651 332.965546,370.955048 332.174561,370.729065 
	C329.850708,370.065186 330.188202,367.884155 330.144623,365.974915 
	C331.888824,365.698608 332.509125,367.069946 333.725311,368.010803 
z"/>
<path fill="#111921" opacity="1.000000" stroke="none" 
	d="
M385.557678,303.070251 
	C386.743256,300.008942 388.814209,301.764160 390.340363,302.450592 
	C391.203644,302.838867 390.329956,304.554077 389.725159,304.990021 
	C387.682495,306.462402 387.081665,303.914246 385.557678,303.070251 
z"/>
<path fill="#111921" opacity="1.000000" stroke="none" 
	d="
M127.066452,227.929108 
	C130.408310,228.706223 130.687363,231.084305 129.546341,233.004852 
	C128.419785,234.901047 125.736595,234.147034 124.742058,232.880127 
	C123.116592,230.809540 124.114365,228.848236 127.066452,227.929108 
z"/>
<path fill="#111921" opacity="1.000000" stroke="none" 
	d="
M151.398438,182.512634 
	C148.419403,183.034378 148.611008,180.173615 146.003433,179.125458 
	C152.181107,178.843918 152.301910,178.930710 151.398438,182.512634 
z"/>
<path fill="#111921" opacity="1.000000" stroke="none" 
	d="
M386.276093,204.405838 
	C383.998688,197.862427 388.828766,201.686447 391.346252,199.997055 
	C389.799591,202.871796 388.379425,204.018738 386.276093,204.405838 
z"/>
<path fill="#111921" opacity="1.000000" stroke="none" 
	d="
M130.543396,272.091736 
	C132.544296,270.695160 134.684158,268.870300 136.383179,271.799469 
	C137.251587,273.296661 136.880859,275.246460 134.958755,275.962738 
	C131.747131,277.159546 130.862091,275.044586 130.543396,272.091736 
z"/>
</svg>