<svg version="1.1" id="Layer_1" xmlns="http://www.w3.org/2000/svg" xmlns:xlink="http://www.w3.org/1999/xlink" x="0px" y="0px"
	 width="169.746px" height="30.583px" viewBox="1.146 0.604 169.746 30.583" enable-background="new 1.146 0.604 169.746 30.583"
	 xml:space="preserve">
<g>
	<path fill="#FFFFFF" d="M28.445,1.451c0.341-0.22,0.721-0.33,1.139-0.33c0.528,0,0.984,0.165,1.37,0.495
		c0.384,0.33,0.577,0.77,0.577,1.32c0,0.198-0.055,0.484-0.165,0.858l-7.095,19.635c-0.176,0.44-0.468,0.78-0.875,1.022
		c-0.407,0.242-0.853,0.363-1.336,0.363c-0.484,0-0.936-0.121-1.353-0.363c-0.418-0.242-0.705-0.582-0.858-1.022L15.38,7.886
		l-5.577,15.543c-0.176,0.44-0.468,0.78-0.875,1.022c-0.407,0.242-0.853,0.363-1.336,0.363c-0.484,0-0.93-0.121-1.336-0.363
		c-0.408-0.242-0.688-0.582-0.842-1.022L1.349,3.794C1.238,3.464,1.183,3.178,1.183,2.936c0-0.55,0.203-0.99,0.61-1.32
		c0.407-0.33,0.885-0.495,1.436-0.495c0.44,0,0.836,0.11,1.188,0.33c0.352,0.22,0.605,0.55,0.759,0.99l5.61,16.137L13.815,2.54
		c0.154-0.44,0.407-0.787,0.759-1.04c0.352-0.252,0.737-0.379,1.155-0.379c0.417,0,0.809,0.127,1.171,0.379
		c0.363,0.253,0.622,0.61,0.775,1.072l5.61,16.203l5.709-16.335C27.856,2.001,28.103,1.671,28.445,1.451z"/>
	<path fill="#FFFFFF" d="M51.476,1.451c0.341-0.22,0.721-0.33,1.139-0.33c0.528,0,0.984,0.165,1.37,0.495
		c0.384,0.33,0.577,0.77,0.577,1.32c0,0.198-0.055,0.484-0.165,0.858l-7.095,19.635c-0.176,0.44-0.468,0.78-0.875,1.022
		c-0.407,0.242-0.853,0.363-1.336,0.363c-0.484,0-0.936-0.121-1.353-0.363c-0.418-0.242-0.705-0.582-0.858-1.022L38.411,7.886
		l-5.577,15.543c-0.176,0.44-0.468,0.78-0.875,1.022c-0.407,0.242-0.853,0.363-1.336,0.363c-0.484,0-0.93-0.121-1.336-0.363
		c-0.408-0.242-0.688-0.582-0.842-1.022L24.39,3.794C24.279,3.464,24.224,3.178,24.224,2.936c0-0.55,0.203-0.99,0.61-1.32
		c0.407-0.33,0.885-0.495,1.436-0.495c0.44,0,0.836,0.11,1.188,0.33c0.352,0.22,0.605,0.55,0.759,0.99l5.61,16.137L50.253,2.54
		c0.154-0.44,0.407-0.787,0.759-1.04c0.352-0.252,0.737-0.379,1.155-0.379c0.417,0,0.809,0.127,1.171,0.379
		c0.363,0.253,0.622,0.61,0.775,1.072l5.61,16.203l5.709-16.335C50.887,2.001,51.135,1.671,51.476,1.451z"/>
	<path fill="#FFFFFF" d="M67.173,9.717c1.089,1.111,1.634,2.8,1.634,5.066v8.051c0,0.595-0.177,1.063-0.528,1.402
		c-0.353,0.341-0.837,0.511-1.452,0.511c-0.572,0-1.04-0.176-1.402-0.527c-0.363-0.352-0.544-0.814-0.544-1.387v-0.726
		c-0.375,0.858-0.963,1.529-1.766,2.013c-0.803,0.484-1.732,0.726-2.789,0.726c-1.078,0-2.057-0.221-2.937-0.66
		c-0.88-0.439-1.573-1.045-2.079-1.814c-0.506-0.771-0.759-1.628-0.759-2.575c0-1.188,0.302-2.123,0.907-2.805
		c0.605-0.682,1.589-1.177,2.954-1.485c1.364-0.308,3.245-0.462,5.643-0.462h0.825v-0.759c0-1.078-0.231-1.865-0.693-2.359
		c-0.462-0.495-1.21-0.743-2.244-0.743c-0.639,0-1.287,0.094-1.947,0.28c-0.66,0.188-1.441,0.457-2.343,0.809
		c-0.572,0.286-0.99,0.429-1.254,0.429c-0.396,0-0.721-0.143-0.974-0.429c-0.253-0.286-0.379-0.66-0.379-1.122
		c0-0.374,0.093-0.698,0.28-0.973c0.187-0.275,0.5-0.533,0.94-0.776c0.77-0.417,1.688-0.748,2.755-0.99
		c1.067-0.242,2.117-0.363,3.152-0.363C64.419,8.051,66.086,8.607,67.173,9.717z M63.841,20.772
		c0.693-0.737,1.04-1.688,1.04-2.854v-0.693h-0.594c-1.474,0-2.618,0.066-3.432,0.198c-0.814,0.132-1.397,0.363-1.749,0.693
		c-0.352,0.33-0.528,0.781-0.528,1.353c0,0.705,0.248,1.282,0.743,1.733c0.495,0.451,1.105,0.676,1.832,0.676
		C62.252,21.877,63.148,21.51,63.841,20.772z"/>
	<path fill="#FFFFFF" d="M76.179,23.429c-0.704-0.418-1.056-1.012-1.056-1.782c0-0.44,0.12-0.797,0.363-1.072
		c0.241-0.275,0.538-0.413,0.891-0.413c0.374,0,0.891,0.176,1.551,0.528c0.704,0.33,1.348,0.583,1.931,0.76
		c0.583,0.176,1.325,0.264,2.228,0.264c0.924,0,1.645-0.154,2.161-0.462c0.517-0.308,0.776-0.737,0.776-1.287
		c0-0.374-0.105-0.671-0.313-0.891c-0.21-0.219-0.584-0.423-1.122-0.61c-0.54-0.187-1.359-0.401-2.459-0.644
		c-1.958-0.396-3.36-0.957-4.207-1.683c-0.848-0.726-1.271-1.727-1.271-3.003c0-0.968,0.285-1.842,0.857-2.624
		c0.572-0.78,1.358-1.386,2.359-1.815c1.001-0.429,2.14-0.644,3.416-0.644c0.924,0,1.814,0.116,2.673,0.347
		c0.859,0.23,1.628,0.567,2.31,1.006c0.704,0.44,1.057,1.023,1.057,1.749c0,0.44-0.121,0.809-0.363,1.105
		c-0.242,0.297-0.539,0.446-0.891,0.446c-0.243,0-0.479-0.05-0.71-0.148c-0.23-0.099-0.522-0.248-0.874-0.446
		c-0.639-0.33-1.188-0.577-1.65-0.742c-0.462-0.165-1.034-0.248-1.716-0.248c-0.814,0-1.458,0.165-1.931,0.495
		c-0.474,0.33-0.71,0.781-0.71,1.353c0,0.55,0.242,0.969,0.727,1.254c0.483,0.286,1.419,0.572,2.805,0.858
		c1.474,0.308,2.629,0.66,3.465,1.056c0.836,0.396,1.436,0.891,1.799,1.485c0.363,0.594,0.545,1.353,0.545,2.277
		c0,1.497-0.622,2.695-1.865,3.597c-1.243,0.902-2.898,1.353-4.966,1.353C79.589,24.848,77.653,24.375,76.179,23.429z"/>
	<path fill="#FFFFFF" d="M92.729,20.591c0.231,0.286,0.347,0.671,0.347,1.156c0,0.682-0.407,1.254-1.221,1.715
		c-0.748,0.419-1.596,0.754-2.541,1.007c-0.946,0.252-1.849,0.379-2.706,0.379c-2.597,0-4.653-0.748-6.171-2.244
		c-1.519-1.496-2.277-3.542-2.277-6.138c0-1.65,0.33-3.113,0.99-4.389s1.589-2.266,2.788-2.97c1.199-0.704,2.558-1.056,4.076-1.056
		c1.451,0,2.717,0.319,3.795,0.957c1.077,0.639,1.914,1.541,2.508,2.706c0.594,1.167,0.891,2.541,0.891,4.125
		c0,0.946-0.418,1.419-1.254,1.419h-9.734c0.132,1.518,0.561,2.635,1.286,3.35c0.727,0.715,1.782,1.073,3.168,1.073
		c0.704,0,1.325-0.088,1.865-0.264c0.538-0.176,1.149-0.418,1.831-0.727c0.66-0.352,1.144-0.528,1.452-0.528
		C92.196,20.162,92.498,20.305,92.729,20.591z M83.422,12.011c-0.672,0.705-1.072,1.716-1.204,3.036h7.458
		c-0.045-1.341-0.375-2.359-0.99-3.052c-0.616-0.693-1.475-1.04-2.574-1.04C84.99,10.955,84.093,11.307,83.422,12.011z"/>
	<path fill="#FFFFFF" d="M107.317,8.431c0.297-0.187,0.621-0.281,0.974-0.281c0.506,0,0.962,0.171,1.369,0.512
		c0.407,0.341,0.61,0.765,0.61,1.271c0,0.242-0.065,0.495-0.197,0.759l-9.01,18.875c-0.374,0.748-0.956,1.123-1.748,1.123
		c-0.507,0-0.952-0.16-1.337-0.479c-0.385-0.32-0.577-0.721-0.577-1.205c0-0.242,0.065-0.518,0.197-0.824l2.244-4.72l-6.138-12.771
		c-0.11-0.22-0.165-0.473-0.165-0.759c0-0.506,0.215-0.935,0.644-1.287c0.429-0.352,0.918-0.528,1.469-0.528
		c0.373,0,0.714,0.094,1.022,0.28c0.308,0.187,0.55,0.479,0.727,0.875l4.619,10.197l4.588-10.164
		C106.784,8.909,107.021,8.618,107.317,8.431z"/>
</g>
</svg>
